<svg width="40" height="40" viewBox="0 0 40 40" fill="none" xmlns="http://www.w3.org/2000/svg">
<path d="M30.5 6.50098H9.5C7.01587 6.50366 5.00269 8.51685 5 11.001V24.001C5.00269 26.4851 7.01587 28.4983 9.5 28.501H10.8899L10.01 32.9009C9.97217 33.0901 10.0466 33.2839 10.2009 33.3994C10.3552 33.5149 10.5623 33.5313 10.7329 33.4414L20.1235 28.501H30.5C32.9841 28.4983 34.9973 26.4851 35 24.001V11.001C34.9973 8.51685 32.9841 6.50366 30.5 6.50098ZM34 24.001C33.9978 25.9331 32.4321 27.4988 30.5 27.501H20C19.9187 27.501 19.8389 27.5208 19.7671 27.5586L11.1965 32.0696L11.99 28.1011C12.02 27.9539 11.9824 27.801 11.8875 27.6848C11.7925 27.5684 11.6501 27.501 11.5 27.501H9.5C7.56787 27.4988 6.0022 25.9331 6 24.001V11.001C6.0022 9.06885 7.56787 7.50317 9.5 7.50098H30.5C32.4321 7.50317 33.9978 9.06885 34 11.001V24.001Z" fill="#1C1919"/>
</svg>
