<svg width="25" height="25" viewBox="0 0 25 25" fill="none" xmlns="http://www.w3.org/2000/svg">
<g clip-path="url(#clip0_3315_21978)">
<path d="M23.5062 9.43203C23.7625 8.93516 23.975 8.26016 23.7508 7.57266C23.4906 6.775 22.7695 6.24141 21.6141 5.99766L14.2648 4.43516L6.76561 0.422656C6.68436 0.378125 5.95624 0 5.1539 0C4.56015 0 4.04765 0.207031 3.67265 0.59375C3.32265 0.960156 3.11093 1.46484 3.04686 2.1C2.97733 2.09609 2.90858 2.09141 2.83983 2.09141C1.70468 2.09141 1.12186 2.56719 0.833583 2.96641C0.381239 3.58437 0.328114 4.41875 0.662489 5.44766L3.42108 13.9039L3.68593 21.232C3.73046 22.5016 4.43515 23.8727 5.87108 23.8727C6.14296 23.8727 6.42811 23.8195 6.72499 23.7188C7.0664 24.2961 7.68124 25 8.66561 25C9.35702 25 10.0461 24.6305 10.7039 23.8937L16.0266 17.9562L23.0898 13.4969C23.2437 13.3992 24.5953 12.5086 24.5461 11.1742C24.5266 10.5063 24.168 9.92422 23.5047 9.43281L23.5062 9.43203ZM7.70311 21.0039L5.27733 13.5734L4.95233 4.35781L13.6234 6.20469L20.6758 9.97656L14.8125 16.5148L7.70311 21.0039ZM21.2281 7.825C21.7937 7.94297 21.9648 8.11328 21.9773 8.15C21.9969 8.21563 21.9562 8.35391 21.8875 8.50859L20.1945 7.60547L21.2281 7.825ZM5.15546 1.86797C5.43671 1.86797 5.79061 2.01875 5.88749 2.06719L7.69921 3.03594L4.89061 2.43828C4.90702 2.10469 4.97577 1.93281 5.0164 1.89219C5.0289 1.88047 5.08202 1.86797 5.15468 1.86797H5.15546ZM2.43749 4.87109C2.23436 4.24844 2.33983 4.06484 2.34374 4.06094C2.36483 4.03672 2.51483 3.96016 2.84061 3.96016C2.92577 3.96016 3.00311 3.96406 3.06796 3.97188L3.1828 7.15L2.43749 4.87109ZM5.54999 21.1625L5.52186 20.3336L6.0539 21.9734C5.99765 21.9891 5.93202 22.0016 5.87186 22.0055C5.7164 22.0055 5.5664 21.4844 5.54999 21.1625V21.1625ZM9.31327 22.6437C8.88202 23.1281 8.6703 23.132 8.6664 23.132C8.60624 23.132 8.47577 22.9937 8.3539 22.8031L10.25 21.6063L9.31327 22.6437ZM22.0992 11.918L20.5937 12.8703L22.3594 10.9016C22.6156 11.0805 22.6844 11.2109 22.6844 11.243C22.6883 11.3812 22.3836 11.7313 22.0992 11.918Z" fill="#1C1919"/>
</g>
<defs>
<clipPath id="clip0_3315_21978">
<rect width="25" height="25" fill="white"/>
</clipPath>
</defs>
</svg>
