<svg width="25" height="25" viewBox="0 0 25 25" fill="none" xmlns="http://www.w3.org/2000/svg">
<g clip-path="url(#clip0_3315_21977)">
<path d="M24.2433 8.31968L9.98027 0.0845027C9.78566 -0.0281676 9.46814 -0.0281676 9.2684 0.0845027L0.766917 5.02663C0.572305 5.1393 0.572305 5.32367 0.766917 5.43634L15.03 13.6715C15.2297 13.7842 15.5421 13.7842 15.7418 13.6715L24.2484 8.72939C24.4379 8.61672 24.4379 8.43235 24.2433 8.31968ZM16.8071 11.7715C16.7302 11.6947 16.6329 11.623 16.5203 11.5615C15.793 11.1416 14.6202 11.1416 13.8981 11.5615C13.8418 11.5922 13.7957 11.6281 13.7496 11.6639L4.1419 6.10724C4.23409 6.07139 4.32115 6.03042 4.40309 5.97921C5.12521 5.55925 5.12009 4.87811 4.39285 4.46328C4.31091 4.41719 4.22897 4.37622 4.1419 4.34037L8.10585 2.03575C8.16731 2.08696 8.23388 2.13305 8.31583 2.18427C9.04306 2.60422 10.2159 2.60422 10.938 2.18427C11.0199 2.13817 11.0916 2.08696 11.1531 2.03063L20.7915 7.59756C20.6635 7.64366 20.5457 7.69487 20.433 7.75632C19.7109 8.17628 19.716 8.85742 20.4432 9.27225C20.5559 9.33883 20.6788 9.39004 20.812 9.43614L16.8071 11.7715ZM17.9696 9.67172L17.3397 10.0353C17.2424 10.0917 17.0887 10.0917 16.9914 10.0353L15.8903 9.40029C15.793 9.34395 15.793 9.25177 15.8903 9.19543L16.5203 8.83181C16.6176 8.77548 16.7712 8.77548 16.8736 8.83181L17.9747 9.46687C18.0669 9.5232 18.0669 9.61539 17.9696 9.67172ZM9.11988 4.56059L8.48995 4.9242C8.39265 4.98054 8.23901 4.98054 8.1417 4.9242L7.0406 4.28915C6.9433 4.23282 6.9433 4.14063 7.0406 4.0843L7.67053 3.72068C7.76784 3.66435 7.92148 3.66435 8.02391 3.72068L9.11988 4.35573C9.21719 4.41207 9.21719 4.50425 9.11988 4.56059ZM23.2805 10.8496L24.3918 11.4898L15.4755 16.6675L15.1836 16.4985L14.3642 16.0273L0.608154 8.07897L1.70925 7.4388L15.4704 15.3872L23.2805 10.8496ZM14.3847 18.8134L0.608154 10.8496L1.70925 10.2095L15.4806 18.1732L23.26 13.651L24.3662 14.2912L15.4909 19.4535L15.2041 19.2897L14.3847 18.8134ZM23.2805 16.3961L24.3918 17.0363L15.4755 22.214L15.1836 22.045L14.3642 21.5738L0.608154 13.6254L1.70925 12.9853L15.4704 20.9336L23.2805 16.3961ZM14.3847 24.3598L0.608154 16.3961L1.70925 15.7559L15.4806 23.7197L23.26 19.1975L24.3662 19.8377L15.4909 25L15.2041 24.8361L14.3847 24.3598ZM15.3321 5.23661C13.7598 4.33012 11.2196 4.33012 9.65763 5.23661C8.10073 6.14309 8.10585 7.61293 9.67811 8.51941C11.2453 9.42589 13.7906 9.42589 15.3475 8.51941C16.9095 7.61293 16.8993 6.14309 15.3321 5.23661ZM12.0596 7.34661H10.9533V6.70644V6.08676L12.0596 6.09188V6.70644L14.5844 6.71156V7.35174L12.0596 7.34661Z" fill="#1C1919"/>
</g>
<defs>
<clipPath id="clip0_3315_21977">
<rect width="25" height="25" fill="white"/>
</clipPath>
</defs>
</svg>
