<svg width="25" height="25" viewBox="0 0 25 25" fill="none" xmlns="http://www.w3.org/2000/svg">
<g clip-path="url(#clip0_3315_21979)">
<path d="M22.5851 15.4443L19.4433 13.3887L20.6529 11.171C20.9447 10.6173 21.0975 10.0009 21.0983 9.37501V5.85939C21.1008 4.87087 20.8145 3.90316 20.2746 3.07508C19.7347 2.24701 18.9648 1.59462 18.0593 1.19803C17.1538 0.801438 16.1522 0.677909 15.1775 0.842611C14.2028 1.00731 13.2974 1.45307 12.5725 2.12516L13.6344 3.2715C14.1367 2.80708 14.7636 2.49932 15.4382 2.38595C16.1129 2.27259 16.8059 2.35854 17.4324 2.63327C18.0589 2.908 18.5916 3.35958 18.9653 3.93263C19.3389 4.50568 19.5372 5.1753 19.5358 5.85939V9.37501C19.5357 9.73948 19.4484 10.0986 19.2812 10.4225L17.381 13.9063L21.7295 16.7517C22.0166 16.9395 22.2521 17.1961 22.4148 17.4982C22.5774 17.8002 22.662 18.1382 22.6608 18.4812V21.0938H19.1452V22.6563H24.2233V18.4812C24.2249 17.8786 24.0759 17.2851 23.7898 16.7548C23.5036 16.2244 23.0895 15.774 22.5851 15.4443V15.4443Z" fill="#1C1919"/>
<path d="M15.5538 17.0068L12.412 14.9512L13.6216 12.7335C13.9134 12.1798 14.0662 11.5634 14.067 10.9375V7.42189C14.066 6.07434 13.5305 4.78222 12.5781 3.82899C11.6256 2.87577 10.3339 2.33927 8.98633 2.33722C6.18765 2.33722 3.91079 4.61823 3.91079 7.42189V10.9375C3.90781 11.5631 4.05899 12.1799 4.35098 12.7332L5.56719 14.9629L2.4437 17.0068C1.9398 17.3359 1.52605 17.7856 1.24 18.3152C0.953952 18.8447 0.804657 19.4372 0.805664 20.0391L0.78125 24.2188H17.192V20.0437C17.1936 19.4411 17.0446 18.8476 16.7585 18.3173C16.4723 17.7869 16.0582 17.3365 15.5538 17.0068V17.0068ZM15.6295 22.6563H2.35283L2.36797 20.0437C2.36679 19.7006 2.45136 19.3627 2.61401 19.0606C2.77665 18.7586 3.01221 18.502 3.29927 18.3141L7.62944 15.4807L5.72266 11.985C5.55736 11.6606 5.47187 11.3015 5.47329 10.9375V7.42189C5.47329 6.48949 5.84369 5.59527 6.50299 4.93596C7.1623 4.27666 8.05651 3.90626 8.98892 3.90626C9.92132 3.90626 10.8155 4.27666 11.4748 4.93596C12.1341 5.59527 12.5045 6.48949 12.5045 7.42189V10.9375C12.5044 11.302 12.4171 11.6611 12.2499 11.985L10.3497 15.4688L14.6982 18.3142C14.9853 18.502 15.2208 18.7586 15.3835 19.0607C15.5461 19.3627 15.6307 19.7007 15.6295 20.0437V22.6563Z" fill="#1C1919"/>
</g>
<defs>
<clipPath id="clip0_3315_21979">
<rect width="25" height="25" fill="white"/>
</clipPath>
</defs>
</svg>
