<svg width="40" height="40" viewBox="0 0 40 40" fill="none" xmlns="http://www.w3.org/2000/svg">
<path d="M29.2585 7.51447H23.3997V5.65218C23.3997 5.29207 23.1076 5 22.7475 5H17.2529C16.8928 5 16.6007 5.29207 16.6007 5.65218V7.51447H10.742C10.3819 7.51447 10.0898 7.80653 10.0898 8.16664V34.3478C10.0898 34.7079 10.3819 35 10.742 35H29.2586C29.6187 35 29.9108 34.7079 29.9108 34.3478V8.16664C29.9107 7.80642 29.6187 7.51447 29.2585 7.51447V7.51447ZM28.6063 33.6956H11.3942V8.81882H16.6008V12.6083C16.6008 12.7995 16.6848 12.9811 16.8303 13.1049C18.7363 14.7268 18.8552 14.7268 19.1156 14.7268H20.8369C21.0909 14.7268 21.2068 14.7268 23.1628 13.111C23.3128 12.9871 23.3997 12.8027 23.3997 12.6082V8.81882H28.6063V33.6956V33.6956ZM22.0953 6.30435V12.3C21.5297 12.7624 20.9216 13.2437 20.6661 13.4224H19.2889C19.0377 13.2425 18.4501 12.7645 17.9052 12.3058V6.30435H22.0953V6.30435Z" fill="#1C1919"/>
<path d="M18.8711 7.68929C18.8711 8.0494 19.1632 8.34146 19.5233 8.34146H20.4776C20.8377 8.34146 21.1298 8.0494 21.1298 7.68929C21.1298 7.32918 20.8377 7.03711 20.4776 7.03711H19.5233C19.1632 7.03711 18.8711 7.32907 18.8711 7.68929V7.68929Z" fill="#1C1919"/>
<path d="M20.0009 24.7244C22.1693 24.7244 23.9334 22.9604 23.9334 20.7919C23.9334 18.6234 22.1693 16.8594 20.0009 16.8594C17.8325 16.8594 16.0684 18.6235 16.0684 20.7919C16.0684 22.9603 17.8324 24.7244 20.0009 24.7244ZM20.0009 18.1637C21.45 18.1637 22.629 19.3428 22.629 20.7919C22.629 22.241 21.45 23.4201 20.0009 23.4201C18.5517 23.4201 17.3727 22.241 17.3727 20.7919C17.3727 19.3428 18.5516 18.1637 20.0009 18.1637Z" fill="#1C1919"/>
<path d="M13.8809 27.79V30.9179C13.8809 31.278 14.1729 31.57 14.533 31.57H25.4674C25.8275 31.57 26.1196 31.278 26.1196 30.9179V27.79C26.1196 26.6094 25.1592 25.6489 23.9785 25.6489H16.022C14.8413 25.6489 13.8809 26.6095 13.8809 27.79ZM15.1852 27.79C15.1852 27.3286 15.5605 26.9533 16.022 26.9533H19.3481V30.2657H15.1852V27.79V27.79ZM24.8152 27.79V30.2657H20.6524V26.9533H23.9785C24.4398 26.9533 24.8152 27.3287 24.8152 27.79V27.79Z" fill="#1C1919"/>
</svg>
