<svg width="25" height="25" viewBox="0 0 25 25" fill="none" xmlns="http://www.w3.org/2000/svg">
<g clip-path="url(#clip0_3315_21980)">
<path d="M16.2919 8.70801H8.70801V16.292H16.292V8.70801H16.2919ZM14.7455 14.7456H10.2543V10.2544H14.7455V14.7456Z" fill="#1C1919"/>
<path d="M25 8.86309V7.3167H20.2296V4.77041H17.6702V0H16.1238V4.77041H13.2732V0H11.7268V4.77041H8.87624V0H7.32985V4.77041H4.77041V7.3167H0V8.86309H4.77041V11.7137H0V13.2601H4.77041V16.1106H0V17.657H4.77041V20.2295H7.32985V25H8.87624V20.2296H11.7268V25H13.2732V20.2296H16.1238V25H17.6702V20.2296H20.2296V17.6571H25V16.1107H20.2296V13.2601H25V11.7137H20.2296V8.86314H25V8.86309ZM18.6832 18.6832H6.3168V6.3168H18.6832V18.6832Z" fill="#1C1919"/>
</g>
<defs>
<clipPath id="clip0_3315_21980">
<rect width="25" height="25" fill="white"/>
</clipPath>
</defs>
</svg>
