<svg width="40" height="40" viewBox="0 0 40 40" fill="none" xmlns="http://www.w3.org/2000/svg">
<path d="M33.4646 16.8508L31.3589 16.4936C31.1395 15.7855 30.8575 15.1024 30.5128 14.4506L31.7537 12.7146C32.2801 11.9751 32.1987 10.9662 31.5532 10.3269L29.6856 8.45937C29.3347 8.10842 28.8709 7.91414 28.3758 7.91414C27.9873 7.91414 27.6175 8.03322 27.3042 8.25883L25.5619 9.49969C24.8851 9.14247 24.1769 8.84792 23.4437 8.62858L23.0928 6.54794C22.9423 5.65177 22.1715 5 21.2628 5H18.6244C17.7157 5 16.9449 5.65177 16.7944 6.54794L16.431 8.67871C15.7291 8.89806 15.046 9.18634 14.3942 9.53729L12.6708 8.29643C12.3574 8.07082 11.9814 7.95174 11.5929 7.95174C11.0978 7.95174 10.6277 8.14602 10.2831 8.49697L8.40923 10.3645C7.77 11.0038 7.68226 12.0127 8.20869 12.7522L9.46208 14.5133C9.1174 15.1713 8.84165 15.8544 8.62858 16.5626L6.54794 16.9135C5.65177 17.0639 5 17.8348 5 18.7435V21.3819C5 22.2906 5.65177 23.0614 6.54794 23.2118L8.67871 23.5753C8.89806 24.2772 9.18634 24.9603 9.53729 25.6121L8.30269 27.3292C7.77627 28.0687 7.85774 29.0777 8.50324 29.7169L10.3708 31.5845C10.7217 31.9354 11.1855 32.1297 11.6806 32.1297C12.0691 32.1297 12.4389 32.0107 12.7522 31.785L14.5133 30.5316C15.1462 30.8638 15.8105 31.1333 16.4936 31.3464L16.8446 33.4521C16.995 34.3482 17.7658 35 18.6745 35H21.3192C22.2279 35 22.9987 34.3482 23.1492 33.4521L23.5064 31.3464C24.2145 31.127 24.8976 30.845 25.5494 30.5003L27.2854 31.7412C27.5987 31.9668 27.9747 32.0859 28.3633 32.0859C28.8584 32.0859 29.3221 31.8916 29.6731 31.5406L31.5406 29.6731C32.1799 29.0338 32.2676 28.0249 31.7412 27.2854L30.5003 25.5431C30.845 24.8851 31.1333 24.202 31.3464 23.5001L33.4521 23.1492C34.3482 22.9987 35 22.2279 35 21.3192V18.6808C35.0125 17.7721 34.3608 17.0013 33.4646 16.8508ZM33.3205 21.3192C33.3205 21.4007 33.264 21.4696 33.1826 21.4821L30.5505 21.9208C30.2183 21.9772 29.9551 22.2216 29.8736 22.5413C29.6355 23.4625 29.272 24.3461 28.7832 25.1671C28.614 25.4554 28.6265 25.8126 28.8208 26.0884L30.3687 28.2693C30.4126 28.3319 30.4063 28.4259 30.3499 28.4823L28.4823 30.3499C28.4385 30.3938 28.3946 30.4 28.3633 30.4C28.3257 30.4 28.2943 30.3875 28.2693 30.3687L26.0946 28.8208C25.8252 28.6265 25.4617 28.614 25.1734 28.7832C24.3524 29.272 23.4688 29.6355 22.5475 29.8736C22.2216 29.9551 21.9772 30.2246 21.9271 30.5504L21.4821 33.1826C21.4696 33.264 21.4007 33.3205 21.3192 33.3205H18.6808C18.5993 33.3205 18.5304 33.264 18.5179 33.1826L18.0792 30.5504C18.0228 30.2183 17.7784 29.9551 17.4587 29.8736C16.5626 29.6417 15.6977 29.2845 14.8893 28.8208C14.7577 28.7456 14.6073 28.708 14.4631 28.708C14.2939 28.708 14.1184 28.7581 13.9743 28.8646L11.7809 30.4251C11.7495 30.4439 11.7182 30.4564 11.6869 30.4564C11.6618 30.4564 11.6117 30.4502 11.5678 30.4063L9.70023 28.5388C9.64383 28.4823 9.63756 28.3946 9.68143 28.3257L11.2231 26.1636C11.4174 25.8878 11.4299 25.5243 11.2607 25.2361C10.7719 24.4213 10.3959 23.5377 10.1577 22.6165C10.07 22.2968 9.80677 22.0524 9.48089 21.996L6.82996 21.5448C6.74849 21.5323 6.69208 21.4633 6.69208 21.3819V18.7435C6.69208 18.662 6.74849 18.5931 6.82996 18.5805L9.44328 18.1418C9.77543 18.0854 10.0449 17.841 10.1264 17.5151C10.3583 16.5939 10.7155 15.704 11.198 14.883C11.3672 14.5947 11.3484 14.2375 11.1542 13.968L9.59369 11.7746C9.54982 11.7119 9.55609 11.6179 9.61249 11.5615L11.4801 9.69396C11.5239 9.65009 11.5678 9.64383 11.5991 9.64383C11.6367 9.64383 11.6681 9.65636 11.6931 9.67516L13.8552 11.2168C14.131 11.4111 14.4945 11.4236 14.7827 11.2544C15.5975 10.7656 16.4811 10.3896 17.4023 10.1515C17.722 10.0637 17.9664 9.8005 18.0228 9.47462L18.474 6.82369C18.4865 6.74222 18.5555 6.68582 18.6369 6.68582H21.2753C21.3568 6.68582 21.4257 6.74222 21.4383 6.82369L21.877 9.43702C21.9334 9.76917 22.1778 10.0386 22.5037 10.1201C23.45 10.3583 24.3524 10.728 25.1922 11.2231C25.4805 11.3923 25.8377 11.3798 26.1134 11.1855L28.2755 9.63129C28.3069 9.61249 28.3382 9.59996 28.3695 9.59996C28.3946 9.59996 28.4447 9.60623 28.4886 9.65009L30.3562 11.5177C30.4126 11.5741 30.4188 11.6618 30.375 11.7307L28.827 13.9054C28.6328 14.1748 28.6202 14.5383 28.7894 14.8266C29.2783 15.6476 29.6417 16.5312 29.8799 17.4525C29.9614 17.7784 30.2308 18.0228 30.5567 18.0729L33.1888 18.5179C33.2703 18.5304 33.3267 18.5993 33.3267 18.6808V21.3192H33.3205V21.3192Z" fill="#1C1919"/>
<path d="M20.0031 13.5229C16.4309 13.5229 13.5293 16.4246 13.5293 19.9967C13.5293 23.5689 16.4309 26.4705 20.0031 26.4705C23.5753 26.4705 26.4769 23.5689 26.4769 19.9967C26.4769 16.4246 23.5753 13.5229 20.0031 13.5229ZM20.0031 24.7784C17.3647 24.7784 15.2214 22.6351 15.2214 19.9967C15.2214 17.3583 17.3647 15.215 20.0031 15.215C22.6415 15.215 24.7848 17.3583 24.7848 19.9967C24.7848 22.6351 22.6415 24.7784 20.0031 24.7784Z" fill="#1C1919"/>
</svg>
