<svg width="56" height="55" viewBox="0 0 56 55" fill="none" xmlns="http://www.w3.org/2000/svg">
<g clip-path="url(#clip0_4946_14218)">
<path d="M15.3238 23.3329C8.19079 23.3329 4.50321 20.1698 1.24972 17.379C0.349096 16.6065 0.245219 15.2501 1.0178 14.3495C1.79027 13.4487 3.14668 13.345 4.04731 14.1175C7.12409 16.7568 9.78127 19.0361 15.3238 19.0361C20.8666 19.0361 23.524 16.7567 26.601 14.1175C29.8547 11.3267 33.5424 8.16357 40.6756 8.16357C47.8085 8.16357 51.4963 11.3265 54.75 14.1173C55.6506 14.8897 55.7547 16.2462 54.9821 17.1468C54.2097 18.0476 52.8535 18.1517 51.9527 17.379C48.8756 14.7397 46.2182 12.4604 40.6756 12.4604C35.1327 12.4604 32.4754 14.7398 29.3984 17.379C26.1447 20.1698 22.4569 23.3329 15.3238 23.3329ZM29.3984 29.1303C32.4754 26.4911 35.1328 24.2118 40.6756 24.2118C46.2184 24.2118 48.8759 26.4911 51.9527 29.1303C52.8535 29.9028 54.2098 29.799 54.9822 28.8984C55.7547 27.9976 55.6509 26.6413 54.7502 25.8688C51.4965 23.0781 47.8087 19.9149 40.6756 19.9149C33.5424 19.9149 29.8547 23.078 26.601 25.8688C23.524 28.508 20.8666 30.7874 15.3238 30.7874C9.78117 30.7874 7.12409 28.5081 4.04731 25.8688C3.14668 25.0964 1.79038 25.2 1.0178 26.1008C0.245219 27.0014 0.349096 28.3578 1.24972 29.1303C4.50331 31.921 8.19089 35.0842 15.3238 35.0842C22.4569 35.0841 26.1447 31.921 29.3984 29.1303ZM29.3984 40.8815C32.4754 38.2423 35.1328 35.963 40.6756 35.963C46.2184 35.963 48.8759 38.2423 51.9527 40.8815C52.8535 41.654 54.2098 41.5502 54.9822 40.6496C55.7547 39.7488 55.6509 38.3925 54.7502 37.6201C51.4965 34.8293 47.8087 31.6661 40.6756 31.6661C33.5424 31.6661 29.8547 34.8292 26.601 37.6201C23.524 40.2592 20.8666 42.5386 15.3238 42.5386C9.78149 42.5386 7.12419 40.2593 4.04742 37.6203L4.0472 37.6201C3.14658 36.8478 1.79038 36.9516 1.0178 37.8521C0.245327 38.7527 0.349204 40.1091 1.24983 40.8816C4.50342 43.6724 8.19111 46.8354 15.3238 46.8354C22.4569 46.8354 26.1447 43.6723 29.3984 40.8815Z" fill="url(#paint0_linear_4946_14218)"/>
</g>
<defs>
<linearGradient id="paint0_linear_4946_14218" x1="30.3096" y1="46.8355" x2="28" y2="8.16357" gradientUnits="userSpaceOnUse">
<stop stop-color="#0074FF"/>
<stop offset="0.508068" stop-color="#FF00E5"/>
<stop offset="1" stop-color="#FED500"/>
</linearGradient>
<clipPath id="clip0_4946_14218">
<rect x="0.5" width="55" height="55" fill="white"/>
</clipPath>
</defs>
</svg>
